# xmcd
#
# Track frame offsets:
#	150
#	17369
#	35220
#	51803
#	67180
#	83534
#	101196
#	119415
#	134008
#	154953
#	170825
#	187642
#	206825
#	222610
#
# Disc length: 3132 seconds
#
# Revision: 0
# Processed by: cddbd v1.5.2PL0 Copyright (c) Steve Scherf et al.
# Submitted via: EasyCDDAExtractor 2010.6.0.0
#
DISCID=d40c3a0e
DTITLE=Various Artist - Mr Music Country  03 2012
DYEAR=2012
DGENRE=Country
TTITLE0=Darius Rucker - Alright
TTITLE1=Kenny Chesney - Ain't back yet
TTITLE2=Vince Gill - Tryin' to get over you
TTITLE3=Lee Ann Womack - Does my ring burn your finger
TTITLE4=Trace Adkins - Honky tonk badonkadunk
TTITLE5=Patty Loveless - Long stretch of lonesome
TTITLE6=George Ducas - Lipstick promises
TTITLE7=Lorrie Morgan - I didn't know my own strength
TTITLE8=Brad Paisley - Letter to me
TTITLE9=The Texas Tornados - Little bit is better than nada
TTITLE10=The Mavericks - What a crying shame
TTITLE11=Jason Michael Carroll - Alyssa lies
TTITLE12=Travis Tritt - She's going home with me
TTITLE13=Mark Chesnutt - It's a little too late
EXTD=
EXTT0=
EXTT1=
EXTT2=
EXTT3=
EXTT4=
EXTT5=
EXTT6=
EXTT7=
EXTT8=
EXTT9=
EXTT10=
EXTT11=
EXTT12=
EXTT13=
PLAYORDER=
